# AST/ASF file generated using VICON BodyLanguage
# -----------------------------------------------
:version 1.10
:name VICON
:units
  mass 1.0
  length 0.45
  angle deg
:documentation
   .ast/.asf automatically generated from VICON data using
   VICON BodyBuilder and BodyLanguage model FoxedUp or BRILLIANT.MOD
:root
   order TX TY TZ RX RY RZ
   axis XYZ
   position 0 0 0  
   orientation 0 0 0 
:bonedata
  begin
     id 1 
     name lhipjoint
     direction 0.692814 -0.645514 0.321437 
     length 2.38754 
     axis 0 0 0  XYZ
  end
  begin
     id 2 
     name lfemur
     direction 0.34202 -0.939693 0  
     length 6.41921  
     axis 0 0 20  XYZ
    dof rx ry rz
    limits (-160.0 20.0)
           (-70.0 70.0)
           (-60.0 70.0)
  end
  begin
     id 3 
     name ltibia
     direction 0.34202 -0.939693 0   
     length 6.98247   
     axis 0 0 20   XYZ
    dof rx
    limits (-10.0 170.0)
  end
  begin
     id 4 
     name lfoot
     direction 0.0947186 -0.260237 0.960888   
     length 1.83034   
     axis -90 7.62852e-016 20   XYZ
    dof rx rz
    limits (-45.0 90.0)
           (-70.0 20.0)
  end
  begin
     id 5 
     name ltoes
     direction 1.53538e-011 -4.21952e-011 1   
     length 0.920499   
     axis -90 7.62852e-016 20   XYZ
    dof rx
    limits (-90.0 20.0)
  end
  begin
     id 6 
     name rhipjoint
     direction -0.631686 -0.693949 0.345555   
     length 2.2209  
     axis 0 0 0  XYZ 
  end
  begin
     id 7 
     name rfemur
     direction -0.34202 -0.939693 0   
     length 6.49542   
     axis 0 0 -20   XYZ
    dof rx ry rz
    limits (-160.0 20.0)
           (-70.0 70.0)
           (-70.0 60.0)
  end
  begin
     id 8 
     name rtibia
     direction -0.34202 -0.939693 0   
     length 7.21712   
     axis 0 0 -20   XYZ
    dof rx
    limits (-10.0 170.0)
 end
 begin
     id 9 
     name rfoot
     direction -0.0825378 -0.226771 0.970444   
     length 1.89724  
     axis -90 -7.62852e-016 -20   XYZ
    dof rx rz
    limits (-45.0 90.0)
           (-20.0 70.0)
  end
  begin
     id 10 
     name rtoes
     direction -1.53515e-011 -4.22016e-011 1   
     length 0.955868   
     axis -90 -7.62852e-016 -20   XYZ
    dof rx
    limits (-90.0 20.0)
  end
  begin
     id 11 
     name lowerback
     direction -0.0104711 0.984802 -0.173368   
     length 1.84931   
     axis 0 0 0   XYZ
    dof rx ry rz
    limits (-20.0 45.0)
           (-30.0 30.0)
           (-30.0 30.0)
  end
  begin
     id 12 
     name upperback
     direction -0.00286433 0.999996 -0.000382853   
     length 1.85768   
     axis 0 0 0   XYZ
    dof rx ry rz
    limits (-20.0 45.0)
           (-30.0 30.0)
           (-30.0 30.0)
  end
  begin
     id 13 
     name thorax
     direction 0.00167534 0.996793 0.0800069   
     length 1.92   
     axis 0 0 0   XYZ
    dof rx ry rz
    limits (-20.0 45.0)
           (-30.0 30.0)
           (-30.0 30.0)
  end
  begin
     id 14 
     name lowerneck
     direction -0.0672491 0.995415 0.068018   
     length 1.58923   
     axis 0 0 0   XYZ
    dof rx ry rz
    limits (-20.0 45.0)
           (-30.0 30.0)
           (-30.0 30.0)
  end
  begin
     id 15 
     name upperneck
     direction 0.0958019 0.982476 -0.159884   
     length 1.60189   
     axis 0 0 0   XYZ
    dof rx ry rz
    limits (-20.0 45.0)
           (-30.0 30.0)
           (-30.0 30.0)
  end
  begin
     id 16
     name head
     direction 0.032989 0.997338 -0.0650226  
     length 1.61681  
     axis 0 0 0   XYZ
    dof rx ry rz
    limits (-20.0 45.0)
           (-30.0 30.0)
           (-30.0 30.0)
  end
  begin
     id 17 
     name lclavicle
     direction 0.954279 0.298875 -0.00496069  
     length 2.99449  
     axis 0 0 0   XYZ
    dof ry rz
    limits (-20.0 10.0)
           (0.0 20.0)
  end
  begin
     id 18 
     name lhumerus
     direction 1 -4.48985e-011 -4.2057e-027   
     length 4.79185   
     axis 180 -30 -90   XYZ
    dof rx ry rz
    limits (-60.0 90.0)
           (-90.0 90.0)
           (-90.0 90.0)
  end
  begin
     id 19
     name lradius
     direction 1 -4.48945e-011 1.15441e-028   
     length 2.65553   
     axis 180 -30 -90   XYZ
    dof rx
    limits (-10.0 170.0)
  end
  begin
     id 20
     name lwrist
     direction 1 -4.4899e-011 4.8894e-028   
     length 1.32777   
     axis -2.56392e-016 90 90   XYZ
    dof ry
    limits (-180.0 0.0)
 end
  begin
     id 21 
     name lhand
     direction 1 -4.48908e-011 9.7788e-028   
     length 0.743904   
     axis -6.23971e-016 90 90   XYZ
    dof rx rz
    limits (-90.0 90.0)
           (-45.0 45.0)
  end
  begin
     id 22 
     name lfingers
     direction 1 -4.49068e-011 1.95576e-027   
     length 0.599754   
     axis -1.24794e-015 90 90   XYZ
    dof rx
    limits (0.0 90.0)
  end
  begin
     id 23
     name lthumb
     direction 0.707107 -6.34883e-011 0.707107   
     length 0.861131   
     axis -90 45 2.85299e-015   XYZ
    dof rx rz
    limits (-45.0 45.0)
           (-45.0 45.0)
  end
  begin
     id 24 
     name rclavicle
     direction -0.957921 0.286916 0.00811568   
     length 3.06817  
     axis 0 0 0   XYZ 
    dof ry rz
    limits (-10.0 20.0)
           (-20.0 0.0)
  end
  begin
     id 25 
     name rhumerus
     direction -1 -4.48971e-011 -3.07942e-027  
     length 4.77254   
     axis 180 30 90   XYZ
    dof rx ry rz
    limits (-90.0 60.0)
           (-90.0 90.0)
           (-90.0 90.0)
  end
  begin
     id 26 
     name rradius
     direction -1 -4.48957e-011 -9.6815e-028   
     length 2.75995   
     axis 180 30 90   XYZ
    dof rx
    limits (-10.0 170.0)
  end
  begin
     id 27 
     name rwrist
     direction -1 -4.48979e-011 4.8894e-028   
     length 1.37997   
     axis -2.56392e-016 -90 -90   XYZ
    dof ry
    limits (-180.0 0.0)
  end
  begin
     id 28
     name rhand
     direction -1 -4.48906e-011 9.7788e-028   
     length 0.701619   
     axis -6.23971e-016 -90 -90   XYZ
    dof rx rz
    limits (-90.0 90.0)
           (-45.0 45.0)
  end
  begin
     id 29
     name rfingers
     direction -1 -4.49018e-011 1.95576e-027   
     length 0.565663   
     axis -1.24794e-015 -90 -90   XYZ
    dof rx
    limits (0.0 90.0)
  end
  begin
     id 30
     name rthumb
     direction -0.707107 -6.34881e-011 0.707107   
     length 0.812183   
     axis -90 -45 -2.85299e-015   XYZ
    dof rx rz
    limits (-45.0 45.0)
           (-45.0 45.0)
  end
:hierarchy
  begin
    root lhipjoint rhipjoint lowerback
    lhipjoint lfemur
    lfemur ltibia
    ltibia lfoot
    lfoot ltoes
    rhipjoint rfemur
    rfemur rtibia
    rtibia rfoot
    rfoot rtoes
    lowerback upperback
    upperback thorax
    thorax lowerneck lclavicle rclavicle
    lowerneck upperneck
    upperneck head
    lclavicle lhumerus
    lhumerus lradius
    lradius lwrist
    lwrist lhand lthumb
    lhand lfingers
    rclavicle rhumerus
    rhumerus rradius
    rradius rwrist
    rwrist rhand rthumb
    rhand rfingers
  end

#!OML:ASF F:\VICON\USERDATA\INSTALL\rory3\rory3.ASF
:FULLY-SPECIFIED
:DEGREES
71
root 0.527186 16.1207 0.166371 -0.618658 -0.504571 -1.43728
lowerback 9.65928 1.00913 -2.82218
upperback -2.75825 0.924722 -0.757287
thorax -8.39426 0.572803 0.630957
lowerneck -12.1081 -8.09212 -12.0971
upperneck 29.2367 -10.9351 7.05592
head 12.8448 -5.38274 3.09244
rclavicle 1.42876e-014 -1.82882e-014
rhumerus -41.7458 -8.3826 -82.3421
rradius 26.6782
rwrist 12.8472
rhand -5.86631 10.4069
rfingers 7.12502
rthumb 19.9609 -18.5879
lclavicle 1.42876e-014 -1.82882e-014
lhumerus -38.4419 4.32473 80.2036
lradius 23.4626
lwrist 1.58391
lhand -7.42887 15.8242
lfingers 7.12502
lthumb 18.4583 44.9684
rfemur 3.449 12.7928 18.3049
rtibia 10.6004
rfoot -9.76924 -14.5225
rtoes -4.60188
lfemur 5.13199 -12.4332 -17.575
ltibia 7.2498
lfoot -8.39161 10.2062
ltoes -9.40408
72
root 0.526935 16.1193 0.167743 -0.71477 -0.54596 -1.57548
lowerback 9.68037 1.00982 -2.67611
upperback -2.74188 0.947722 -0.712257
thorax -8.38726 0.577578 0.592589
lowerneck -12.0611 -8.09396 -12.1907
upperneck 29.0635 -10.9352 7.14524
head 12.7763 -5.38328 3.14211
rclavicle -9.29318e-015 3.18055e-015
rhumerus -41.5652 -8.09711 -82.8811
rradius 26.4577
rwrist 12.795
rhand -5.93736 10.5989
rfingers 7.12502
rthumb 19.8926 -18.403
lclavicle -9.29318e-015 3.18055e-015
lhumerus -38.2342 4.06328 80.8157
lradius 22.9914
lwrist 0.564743
lhand -7.31779 15.7861
lfingers 7.12502
lthumb 18.5652 44.9202
rfemur 3.58067 12.8137 18.4855
rtibia 10.5495
rfoot -9.75737 -14.4933
rtoes -4.83967
lfemur 5.09323 -12.399 -17.4397
ltibia 7.54119
lfoot -8.5695 10.199
ltoes -9.80628
73
root 0.527449 16.1159 0.168783 -0.814483 -0.596419 -1.74827
lowerback 9.64781 1.01164 -2.45521
upperback -2.69181 0.98255 -0.689538
thorax -8.31099 0.582891 0.487861
lowerneck -12.054 -8.11189 -12.2423
upperneck 28.8987 -10.9661 7.23728
head 12.7206 -5.3914 3.17925
rclavicle 9.01985e-015 8.74653e-015
rhumerus -41.3497 -8.04618 -83.3457
rradius 26.202
rwrist 12.9974
rhand -5.9603 10.7643
rfingers 7.12502
rthumb 19.8705 -18.2399
lclavicle 9.01985e-015 8.74653e-015
lhumerus -37.9636 3.92535 81.3006
lradius 22.5602
lwrist -0.669876
lhand -6.88789 15.7609
lfingers 7.12502
lthumb 18.9786 44.855
rfemur 3.71068 12.8555 18.705
rtibia 10.5057
rfoot -9.73447 -14.4783
rtoes -4.78802
lfemur 5.07683 -12.3569 -17.2696
ltibia 7.82387
lfoot -8.70724 10.1232
ltoes -9.67243
74
root 0.530734 16.112 0.172909 -0.93229 -0.631 -1.71499
lowerback 9.61155 0.99639 -2.40631
upperback -2.63536 0.967762 -0.725792
thorax -8.22686 0.571174 0.425862
lowerneck -12.0604 -8.11019 -12.2599
upperneck 28.7382 -10.968 7.30569
head 12.662 -5.38564 3.20617
rclavicle -1.81391e-015 -1.59028e-015
rhumerus -41.1376 -7.80668 -83.9064
rradius 26.0306
rwrist 13.1512
rhand -5.98948 10.6205
rfingers 7.12502
rthumb 19.8425 -18.3866
lclavicle -1.81391e-015 -1.59028e-015
lhumerus -37.6817 3.7333 81.8681
lradius 22.1155
lwrist -1.44607
lhand -6.80508 15.5474
lfingers 7.12502
lthumb 19.0583 44.6336
rfemur 3.84489 12.7843 18.6669
rtibia 10.5249
rfoot -9.72282 -14.373
rtoes -4.95154
lfemur 5.14594 -12.3251 -17.3601
ltibia 8.01411
lfoot -8.85476 10.051
ltoes -9.89363
75
root 0.533241 16.1079 0.180016 -1.08559 -0.626092 -1.57536
lowerback 9.59029 0.985421 -2.48516
upperback -2.57072 0.94084 -0.777773
thorax -8.14476 0.559473 0.420915
lowerneck -12.0363 -8.09495 -12.298
upperneck 28.576 -10.9519 7.38611
head 12.5967 -5.37351 3.24519
rclavicle 1.04362e-015 -2.38542e-015
rhumerus -40.9885 -7.31994 -84.5988
rradius 25.9809
rwrist 13.0319
rhand -6.20811 10.3745
rfingers 7.12502
rthumb 19.6323 -18.6542
lclavicle 1.04362e-015 -2.38542e-015
lhumerus -37.3996 3.30355 82.6156
lradius 21.7355
lwrist -1.72009
lhand -7.04789 15.5092
lfingers 7.12502
lthumb 18.8248 44.6183
rfemur 4.04856 12.6709 18.5202
rtibia 10.5408
rfoot -9.77742 -14.2496
rtoes -4.84111
lfemur 5.24818 -12.3307 -17.5803
ltibia 8.21325
lfoot -9.0181 10.0417
ltoes -10.2665
76
root 0.533739 16.1031 0.183573 -1.26984 -0.643277 -1.57531
lowerback 9.63395 0.973972 -2.48511
upperback -2.49308 0.926968 -0.759437
thorax -8.08625 0.552195 0.442965
lowerneck -12.0731 -8.06371 -12.3358
upperneck 28.4526 -10.8979 7.43594
head 12.5533 -5.34628 3.27708
rclavicle 1.41634e-015 5.56597e-015
rhumerus -40.8504 -6.62003 -85.3485
rradius 26.0159
rwrist 12.7315
rhand -6.41243 10.1285
rfingers 7.12502
rthumb 19.4358 -18.9201
lclavicle 1.41634e-015 5.56597e-015
lhumerus -37.1286 2.85498 83.3939
lradius 21.4352
lwrist -1.92116
lhand -7.38445 15.3531
lfingers 7.12502
lthumb 18.501 44.4933
rfemur 4.25204 12.5907 18.5469
rtibia 10.5847
rfoot -9.90131 -14.1246
rtoes -4.54061
lfemur 5.39055 -12.32 -17.6356
ltibia 8.38453
lfoot -9.14752 10.0355
ltoes -10.1378
77
root 0.532233 16.1003 0.184067 -1.38867 -0.702167 -1.71685
lowerback 9.67043 0.982276 -2.35366
upperback -2.44197 0.958517 -0.708551
thorax -8.05138 0.561897 0.417768
lowerneck -12.1837 -8.05821 -12.3209
upperneck 28.3818 -10.8708 7.42554
head 12.5424 -5.33034 3.27047
rclavicle 4.89507e-015 -9.54166e-015
rhumerus -40.6468 -5.92205 -86.087
rradius 25.954
rwrist 12.4074
rhand -6.62158 9.96824
rfingers 7.12502
rthumb 19.2347 -19.1005
lclavicle 4.89507e-015 -9.54166e-015
lhumerus -36.9239 1.66857 84.5182
lradius 21.3102
lwrist -1.19545
lhand -7.98047 15.0119
lfingers 7.12502
lthumb 17.9276 44.2056
rfemur 4.33308 12.6659 18.7477
rtibia 10.6596
rfoot -9.98685 -14.1656
rtoes -4.65311
lfemur 5.45056 -12.2706 -17.5074
ltibia 8.5531
lfoot -9.16991 10.0322
ltoes -9.95524
78
root 0.530651 16.0985 0.184401 -1.5045 -0.764109 -1.82497
lowerback 9.75142 0.990358 -2.25419
upperback -2.43216 0.982646 -0.670577
thorax -8.08695 0.569966 0.396776
lowerneck -12.1672 -8.05376 -12.2972
upperneck 28.2207 -10.8651 7.4418
head 12.4721 -5.32358 3.27242
rclavicle -1.90336e-014 0
rhumerus -40.5357 -5.51317 -86.6488
rradius 25.8545
rwrist 12.6313
rhand -6.80974 10.0609
rfingers 7.12502
rthumb 19.0538 -19.0258
lclavicle -1.90336e-014 0
lhumerus -36.894 0.16755 85.7408
lradius 21.3847
lwrist -0.429716
lhand -8.76394 14.9732
lfingers 7.12502
lthumb 17.1737 44.2343
rfemur 4.3834 12.7741 18.9158
rtibia 10.8044
rfoot -9.98274 -14.2361
rtoes -5.23858
lfemur 5.52339 -12.2179 -17.4082
ltibia 8.69225
lfoot -9.20621 10.0348
ltoes -9.89094
79
root 0.529457 16.0957 0.18441 -1.61197 -0.788535 -1.79342
lowerback 9.83145 1.00666 -2.30124
upperback -2.42285 0.996611 -0.663632
thorax -8.12472 0.579388 0.427021
lowerneck -12.1175 -8.05963 -12.3032
upperneck 28.0125 -10.8719 7.4734
head 12.381 -5.32447 3.28356
rclavicle 2.92959e-014 2.38542e-015
rhumerus -40.5052 -5.1953 -87.121
rradius 25.8678
rwrist 13.2943
rhand -7.16469 10.1704
rfingers 7.12502
rthumb 18.7124 -18.9496
lclavicle 2.92959e-014 2.38542e-015
lhumerus -36.8527 -0.364718 86.3946
lradius 21.4795
lwrist -1.52646
lhand -9.30773 14.9955
lfingers 7.12502
lthumb 16.6502 44.3014
rfemur 4.39826 12.7953 18.9141
rtibia 11.0181
rfoot -9.92047 -14.2454
rtoes -5.76586
lfemur 5.57845 -12.1973 -17.4646
ltibia 8.81715
lfoot -9.25982 10.08
ltoes -10.2451
80
root 0.529184 16.0922 0.183324 -1.72386 -0.807032 -1.62236
lowerback 9.86654 1.02277 -2.47211
upperback -2.36709 0.992983 -0.700751
thorax -8.08777 0.584231 0.484606
lowerneck -12.1486 -8.07012 -12.2778
upperneck 27.8014 -10.8718 7.47018
head 12.3006 -5.32063 3.27451
rclavicle 9.96408e-015 -7.15625e-015
rhumerus -40.4142 -4.71521 -87.6554
rradius 25.9497
rwrist 14.2128
rhand -7.54522 10.0576
rfingers 7.12502
rthumb 18.3464 -19.0972
lclavicle 9.96408e-015 -7.15625e-015
lhumerus -36.6208 0.113441 86.4001
lradius 21.3248
lwrist -4.01075
lhand -9.56138 14.4711
lfingers 7.12502
lthumb 16.406 43.7973
rfemur 4.34688 12.8503 18.7557
rtibia 11.3393
rfoot -9.98144 -14.2754
rtoes -5.88784
lfemur 5.66527 -12.1765 -17.6819
ltibia 8.86925
lfoot -9.25609 10.0719
ltoes -10.3835
81
root 0.530457 16.0902 0.18132 -1.7819 -0.827841 -1.48847
lowerback 9.81831 1.03465 -2.55241
upperback -2.29519 0.99705 -0.75789
thorax -7.98322 0.587199 0.470468
lowerneck -12.2982 -8.09194 -12.171
upperneck 27.6338 -10.8895 7.44147
head 12.2568 -5.31594 3.23593
rclavicle 2.45251e-014 -7.15625e-015
rhumerus -40.2238 -4.35282 -88.1269
rradius 25.9619
rwrist 15.4
rhand -7.69573 9.99799
rfingers 7.12502
rthumb 18.2016 -19.1704
lclavicle 2.45251e-014 -7.15625e-015
lhumerus -36.2604 0.789346 86.1988
lradius 21.1555
lwrist -6.6024
lhand -9.66598 14.3936
lfingers 7.12502
lthumb 16.3053 43.7281
rfemur 4.15573 12.8655 18.6169
rtibia 11.799
rfoot -10.1326 -14.2682
rtoes -6.10388
lfemur 5.75297 -12.1523 -17.8448
ltibia 8.80107
lfoot -9.29083 10.027
ltoes -10.4582
82
root 0.53367 16.0861 0.178733 -1.86098 -0.835002 -1.38863
lowerback 9.82013 1.03908 -2.58903
upperback -2.24177 0.996609 -0.792169
thorax -7.92692 0.586951 0.455619
lowerneck -12.3959 -8.08263 -12.1141
upperneck 27.4688 -10.8768 7.47998
head 12.2077 -5.29665 3.23831
rclavicle 9.49197e-015 -1.59028e-015
rhumerus -40.0987 -4.01002 -88.5257
rradius 26.0645
rwrist 16.2581
rhand -7.68659 9.85745
rfingers 7.12502
rthumb 18.2104 -19.3101
lclavicle 9.49197e-015 -1.59028e-015
lhumerus -35.9683 1.36481 86.0479
lradius 21.3121
lwrist -9.04308
lhand -9.36764 15.584
lfingers 7.12502
lthumb 16.5925 44.8947
rfemur 3.9855 12.7763 18.4925
rtibia 12.2676
rfoot -10.3369 -14.1464
rtoes -6.4102
lfemur 5.85139 -12.1428 -17.9834
ltibia 8.76144
lfoot -9.34607 9.98925
ltoes -10.8623
